<?xml version="1.0" encoding="UTF-8" ?>
<!DOCTYPE svg PUBLIC "-//W3C//DTD SVG 1.1//EN" "http://www.w3.org/Graphics/SVG/1.1/DTD/svg11.dtd">
<svg width="500pt" height="287pt" viewBox="0 0 500 287" version="1.1" xmlns="http://www.w3.org/2000/svg">
<g id="#72b655ff">
<path fill="#72b655" opacity="1.00" d=" M 84.16 9.19 C 88.33 6.85 93.89 4.78 98.27 7.81 C 102.23 9.95 102.62 14.99 102.51 19.00 C 101.96 30.53 98.16 41.55 94.55 52.41 C 91.13 62.10 87.54 71.76 83.05 81.01 C 81.55 84.02 76.11 81.19 78.17 78.22 C 86.91 61.66 94.86 44.34 98.49 25.86 C 99.07 21.06 100.23 15.66 97.83 11.19 C 94.75 8.11 89.75 9.63 86.35 11.43 C 80.91 14.73 76.09 19.01 71.75 23.65 C 60.46 36.37 50.42 50.22 41.95 64.98 C 31.47 83.05 22.17 101.99 16.45 122.14 C 13.46 133.94 11.38 146.37 13.71 158.48 C 15.50 167.65 23.40 175.81 33.01 176.22 C 44.24 176.39 54.38 170.48 63.01 163.84 C 79.99 150.18 94.29 133.38 106.27 115.22 C 105.33 113.03 104.18 110.59 105.04 108.18 C 106.87 102.96 112.41 99.30 117.92 99.61 C 120.51 99.63 123.05 99.04 125.62 98.82 C 124.88 99.79 124.12 100.74 123.34 101.68 C 126.68 106.20 126.54 112.15 125.58 117.43 C 129.45 116.95 133.28 116.20 137.03 115.13 C 138.19 111.31 139.34 107.46 140.94 103.80 C 141.55 102.28 143.85 101.66 144.99 102.92 C 146.57 104.15 145.78 106.29 145.48 107.92 C 143.72 114.33 141.81 120.72 140.16 127.17 C 144.80 121.12 147.98 113.86 153.70 108.67 C 156.02 106.28 160.13 107.60 161.39 110.44 C 163.23 114.72 160.49 119.47 162.20 123.76 C 164.03 126.87 168.24 126.37 171.05 125.02 C 175.26 122.85 179.36 119.98 181.99 115.98 C 184.55 110.94 186.65 104.84 192.05 102.16 C 195.04 100.53 198.91 101.82 200.46 104.79 C 201.95 102.83 204.30 100.88 206.93 101.91 C 210.37 103.95 209.74 108.53 209.44 111.91 C 206.10 136.18 198.34 159.56 189.67 182.38 C 186.43 190.25 183.54 198.47 178.32 205.29 C 176.52 207.45 174.06 210.04 170.95 209.37 C 168.60 208.57 167.20 206.19 166.48 203.94 C 165.34 199.41 165.34 194.68 165.63 190.06 C 166.75 177.56 169.33 165.06 174.64 153.63 C 177.18 148.38 180.84 142.58 186.92 141.19 C 188.68 141.22 191.46 140.30 192.27 142.46 C 187.10 141.16 182.14 144.17 179.35 148.38 C 173.39 157.15 170.90 167.71 169.01 177.99 C 167.92 185.90 166.68 194.15 169.07 201.96 C 169.42 203.44 170.82 205.44 172.56 204.51 C 176.23 202.44 177.88 198.29 179.69 194.71 C 185.89 181.39 189.76 167.17 194.14 153.19 C 198.40 138.79 202.85 124.28 203.91 109.22 C 199.37 115.44 196.71 122.86 191.84 128.86 C 189.80 131.41 186.33 133.97 183.04 131.95 C 179.64 129.49 180.46 124.60 180.74 120.97 C 175.85 125.45 169.43 130.20 162.41 128.33 C 157.50 126.94 155.80 121.54 155.68 116.97 C 155.22 115.23 156.14 112.71 154.28 111.65 C 147.31 117.22 145.04 126.64 138.70 132.77 C 136.83 134.42 134.24 132.24 134.23 130.14 C 133.88 125.71 135.41 121.42 136.46 117.17 C 132.64 118.13 128.79 118.99 124.93 119.74 C 123.38 124.38 121.38 129.42 116.81 131.88 C 113.96 133.62 110.08 132.23 108.41 129.48 C 105.95 125.93 106.77 121.39 106.96 117.36 C 99.23 128.67 91.01 139.68 81.61 149.66 C 72.82 159.27 63.01 168.14 51.60 174.55 C 44.12 178.56 35.24 181.32 26.78 179.06 C 19.64 177.25 13.95 171.65 10.88 165.10 C 8.04 158.84 6.92 151.86 7.30 145.02 C 7.92 133.41 10.39 121.94 14.11 110.94 C 23.28 84.37 37.68 59.89 54.48 37.47 C 62.95 26.74 72.21 16.13 84.16 9.19 M 107.33 112.19 C 110.64 109.67 112.43 105.59 114.92 102.29 C 110.47 103.46 107.03 107.47 107.33 112.19 M 113.07 116.89 C 116.01 117.52 119.01 117.82 122.02 117.88 C 123.50 113.03 124.73 107.15 121.19 102.86 C 117.39 106.80 114.52 111.60 113.07 116.89 M 193.18 108.09 C 188.33 113.01 186.00 120.15 185.84 126.96 C 191.49 121.63 193.87 113.95 198.18 107.65 C 196.51 107.62 194.41 106.45 193.18 108.09 M 112.40 119.28 C 112.27 121.50 111.94 123.77 112.39 125.98 C 112.75 127.45 114.66 128.53 115.83 127.12 C 118.30 125.47 119.75 122.82 121.14 120.29 C 118.21 120.06 115.29 119.76 112.40 119.28 Z" />
<path fill="#72b655" opacity="1.00" d=" M 131.85 60.09 C 132.04 53.91 138.12 48.86 144.06 48.46 C 149.51 48.18 153.42 54.14 151.81 59.15 C 149.39 68.19 142.97 75.69 136.01 81.67 C 135.56 81.30 134.67 80.54 134.22 80.17 C 137.27 77.17 140.41 74.25 142.88 70.74 C 137.69 69.41 133.31 65.26 131.85 60.09 M 136.76 56.51 C 135.58 58.10 135.30 60.63 137.24 61.77 C 140.19 63.80 142.89 66.18 143.81 69.79 C 144.80 65.83 146.94 62.13 146.93 57.96 C 147.08 55.89 146.73 53.35 144.67 52.30 C 141.40 51.26 138.42 53.98 136.76 56.51 Z" />
<path fill="#72b655" opacity="1.00" d=" M 331.38 55.33 C 332.18 53.73 334.51 54.53 335.28 55.73 C 337.03 57.79 336.16 60.60 335.58 62.93 C 333.23 71.66 330.67 80.33 328.52 89.11 C 328.18 90.96 326.91 92.34 325.20 93.09 C 326.63 83.17 329.87 73.49 329.92 63.38 C 330.13 60.69 329.67 57.64 331.38 55.33 Z" />
<path fill="#72b655" opacity="1.00" d=" M 109.58 94.56 C 115.57 89.75 119.29 82.77 121.81 75.64 C 124.15 76.01 127.78 75.60 128.14 78.81 C 128.74 84.73 128.71 90.94 131.86 96.23 C 131.47 99.50 127.18 98.00 125.79 96.29 C 123.98 91.97 123.42 87.28 122.40 82.74 C 119.09 89.26 115.24 95.96 108.86 99.94 C 106.95 101.23 104.60 101.44 102.36 101.58 C 103.66 98.27 107.10 96.82 109.58 94.56 Z" />
<path fill="#72b655" opacity="1.00" d=" M 338.71 78.74 C 340.84 77.66 343.45 78.86 344.18 81.11 C 345.64 85.28 343.92 89.66 342.45 93.58 C 342.70 94.19 343.19 95.41 343.44 96.02 C 342.30 96.60 340.80 96.78 340.18 98.04 C 337.63 101.97 335.53 106.16 333.18 110.20 C 333.08 112.63 332.82 115.05 332.52 117.46 C 336.19 116.92 339.83 116.22 343.45 115.39 C 344.45 113.10 345.22 110.67 346.62 108.57 C 348.11 106.21 352.35 108.34 351.36 110.95 C 350.01 116.56 346.60 121.87 347.57 127.85 C 351.63 126.59 355.66 125.16 359.89 124.52 C 365.99 124.26 368.96 118.17 372.90 114.43 C 375.35 114.71 373.69 116.95 372.75 117.79 C 370.89 119.84 368.84 121.71 366.89 123.66 C 384.71 122.72 402.09 130.13 415.68 141.30 C 429.21 152.45 440.04 167.70 443.38 185.14 C 445.02 193.50 444.18 202.88 438.91 209.85 C 432.22 218.35 420.49 222.11 409.99 220.03 C 398.27 217.59 389.03 208.52 384.01 197.95 C 383.68 198.09 383.01 198.36 382.68 198.50 C 379.59 203.03 377.64 208.66 372.98 211.91 C 370.74 213.48 367.15 212.46 366.33 209.77 C 365.25 207.18 366.26 204.43 366.71 201.82 C 363.22 205.08 359.08 208.56 353.97 208.06 C 348.38 207.49 344.69 202.50 342.82 197.63 C 339.45 202.06 338.46 208.31 333.61 211.63 C 330.35 214.14 323.76 212.74 323.72 207.99 C 322.74 199.12 326.55 190.70 329.67 182.62 C 330.41 179.41 335.67 180.81 334.86 183.93 C 332.42 191.68 328.14 199.36 329.20 207.76 C 330.70 206.75 332.03 205.48 332.92 203.90 C 336.76 197.36 339.53 190.27 342.36 183.26 C 342.79 181.97 343.94 181.18 344.90 180.30 C 346.90 181.17 348.16 182.63 347.92 184.89 C 349.95 181.69 351.89 178.43 353.50 175.00 C 351.55 173.07 349.01 171.05 349.10 168.02 C 349.03 164.18 350.97 159.26 355.13 158.46 C 358.61 157.94 360.15 162.20 359.75 165.02 C 360.04 168.92 356.51 172.46 358.39 176.27 C 357.77 176.42 356.53 176.71 355.91 176.85 C 353.36 181.04 350.92 185.30 348.61 189.63 C 347.98 189.83 346.73 190.23 346.10 190.44 C 345.82 195.67 346.66 201.73 350.92 205.28 C 357.54 208.64 364.35 203.15 367.84 197.82 C 370.67 192.07 373.02 185.29 378.89 181.94 C 382.47 179.69 388.19 182.65 387.36 187.10 C 385.39 203.81 400.21 220.37 417.08 219.88 C 427.99 220.17 439.38 212.87 441.96 201.93 C 444.43 191.32 440.74 180.41 435.66 171.14 C 426.92 155.58 413.80 142.32 397.92 134.08 C 387.21 128.80 375.05 125.55 363.07 127.05 C 357.91 129.95 351.94 134.35 345.82 131.35 C 343.02 132.63 340.09 133.78 337.68 135.73 C 335.09 140.57 333.30 145.80 331.20 150.87 C 333.41 156.83 335.90 162.94 340.43 167.56 C 342.72 170.05 346.11 171.30 347.98 174.22 C 347.27 174.34 345.85 174.58 345.14 174.70 C 338.02 171.19 333.05 164.69 328.07 158.72 C 323.98 170.46 319.25 182.07 316.51 194.21 C 316.86 194.14 317.54 193.99 317.88 193.92 L 317.43 195.27 C 319.14 204.67 321.59 214.25 326.45 222.54 C 355.96 222.74 385.48 223.02 414.99 223.66 C 434.93 224.37 454.91 224.74 474.78 226.75 C 480.29 227.44 485.85 228.10 491.20 229.69 C 491.54 230.28 492.21 231.46 492.55 232.05 C 490.68 235.23 487.03 233.19 484.30 232.71 C 470.05 229.77 455.49 228.92 441.02 227.76 C 403.06 225.58 365.03 224.24 327.01 224.30 C 332.15 233.41 338.22 241.96 344.89 250.01 C 345.98 251.27 347.08 252.62 348.68 253.27 C 358.29 257.52 367.80 262.34 375.94 269.08 C 378.49 271.31 381.12 273.75 382.32 277.00 C 383.26 279.17 381.37 281.85 379.01 281.61 C 376.47 281.54 374.25 280.14 372.13 278.91 C 362.23 272.65 354.59 263.61 346.77 255.09 C 333.06 248.68 318.55 244.05 303.96 240.07 C 302.72 246.49 301.88 253.04 302.62 259.59 C 301.44 259.47 299.87 260.16 298.96 259.12 C 298.02 257.28 298.44 255.11 298.60 253.14 C 299.29 248.53 300.20 243.95 301.53 239.49 C 276.14 232.71 250.07 228.74 223.92 226.41 C 220.37 226.05 216.79 225.87 213.30 225.16 C 216.52 224.48 219.76 225.25 222.99 225.44 C 246.49 227.68 269.90 231.06 292.97 236.10 C 295.97 236.79 298.96 237.49 302.01 237.92 C 303.03 233.17 304.50 228.52 305.72 223.82 C 277.47 223.70 249.22 223.69 220.97 223.80 C 218.01 223.90 214.88 223.95 212.23 225.43 C 191.86 223.42 171.40 224.80 150.98 224.82 C 130.67 225.62 110.34 225.45 90.03 226.23 C 81.60 226.08 73.13 227.10 64.73 226.23 C 65.05 225.68 65.68 224.59 65.99 224.04 C 100.90 221.43 135.97 220.59 170.96 221.91 C 180.97 222.40 190.98 223.02 201.01 222.84 C 235.96 222.67 270.92 222.65 305.86 222.56 C 308.90 213.78 311.00 204.66 313.84 195.81 C 317.48 182.36 322.37 169.27 326.00 155.82 C 326.02 155.30 326.05 154.27 326.07 153.75 C 323.67 157.80 322.31 162.34 320.46 166.64 C 318.74 171.14 316.41 175.44 315.49 180.21 C 313.46 182.51 312.53 185.52 311.52 188.36 C 310.76 191.67 311.08 195.78 307.59 197.62 C 304.91 202.99 303.24 208.89 299.82 213.87 C 298.12 216.63 293.91 216.33 291.95 214.01 C 288.38 210.12 288.90 204.30 289.86 199.51 C 291.45 193.42 294.02 187.13 298.98 183.02 C 302.43 180.11 308.31 180.81 310.28 185.13 C 311.93 181.08 314.17 177.24 315.38 173.03 C 316.25 162.18 319.64 151.21 326.80 142.84 C 331.74 138.12 332.78 131.04 336.23 125.36 C 337.80 124.12 340.22 125.21 340.82 126.98 C 340.76 128.82 339.82 130.46 339.21 132.16 C 340.70 131.33 342.20 130.53 343.72 129.75 C 341.53 125.92 341.90 121.37 342.89 117.24 C 339.25 118.23 335.57 119.02 331.87 119.72 C 330.19 124.26 328.51 129.61 323.73 131.78 C 320.87 133.59 317.08 132.22 315.30 129.55 C 313.04 126.82 313.72 123.06 313.70 119.79 C 310.15 123.84 305.80 128.19 300.01 128.15 C 294.34 127.96 290.38 123.14 288.37 118.28 C 288.15 118.23 287.70 118.11 287.48 118.05 C 285.30 122.50 283.65 127.46 279.95 130.94 C 277.14 133.65 272.13 133.52 269.65 130.46 C 268.44 127.39 268.94 123.98 268.97 120.76 C 264.00 126.08 259.41 132.27 252.60 135.32 C 249.09 136.96 243.88 136.88 241.89 133.01 C 238.54 126.76 240.32 119.10 242.89 112.88 C 245.55 106.73 248.98 99.65 255.97 97.67 C 260.52 96.86 262.54 102.47 260.78 105.94 C 259.93 108.31 257.75 112.29 254.75 110.32 C 252.71 108.97 254.10 106.69 254.82 105.01 C 249.60 110.82 246.37 118.29 245.10 125.96 C 244.66 128.41 244.80 131.49 246.93 133.15 C 249.27 134.18 251.93 133.17 254.06 132.07 C 259.42 128.94 263.52 124.13 267.49 119.45 C 272.30 114.29 272.06 106.51 276.08 100.87 C 278.03 100.17 280.97 101.59 280.26 103.97 C 277.75 111.68 273.53 119.38 274.60 127.75 C 276.18 126.58 277.54 125.14 278.49 123.42 C 282.11 117.10 284.81 110.32 287.51 103.57 C 288.05 102.11 289.08 100.23 290.99 100.79 C 292.74 101.03 293.04 102.89 293.67 104.20 C 295.54 101.23 297.26 98.16 298.78 95.00 C 296.26 92.75 293.50 89.82 294.45 86.12 C 294.99 82.31 298.33 76.76 302.82 78.87 C 307.09 82.50 304.70 88.79 303.01 93.19 C 303.21 93.93 303.61 95.42 303.81 96.17 C 303.16 96.36 301.87 96.76 301.22 96.96 C 298.86 100.77 296.73 104.72 294.51 108.61 C 293.91 109.82 292.47 110.08 291.41 110.71 C 291.19 115.87 292.15 121.93 296.43 125.31 C 303.83 128.70 310.57 122.03 314.28 116.29 C 312.59 114.28 311.29 111.71 311.79 109.00 C 312.98 103.53 318.51 99.70 323.97 99.65 C 326.86 99.70 329.69 99.06 332.55 98.76 C 331.81 99.77 331.04 100.76 330.24 101.73 C 330.96 102.90 331.68 104.07 332.40 105.24 C 334.72 102.06 336.60 98.59 338.35 95.06 C 336.10 92.91 333.40 90.35 333.89 86.91 C 334.33 83.76 335.75 80.27 338.71 78.74 M 299.54 91.79 C 301.61 88.43 301.66 84.08 299.85 80.59 C 295.99 83.18 295.13 89.25 299.54 91.79 M 336.16 85.89 C 335.28 88.67 337.59 90.61 339.81 91.66 C 340.41 88.22 341.54 84.44 339.70 81.18 C 337.30 80.92 336.72 84.11 336.16 85.89 M 314.49 112.89 C 315.90 112.15 316.35 110.53 317.14 109.27 C 318.36 106.71 320.56 104.81 321.83 102.29 C 317.15 103.42 313.50 107.93 314.49 112.89 M 320.00 116.87 C 322.95 117.51 325.96 117.78 328.98 117.84 C 330.30 113.00 331.98 106.99 328.09 102.88 C 324.30 106.80 321.44 111.59 320.00 116.87 M 319.31 119.28 C 319.16 122.31 318.41 125.80 320.81 128.20 C 324.25 126.67 326.43 123.56 328.06 120.30 C 325.13 120.03 322.21 119.72 319.31 119.28 M 323.62 149.59 C 320.14 155.45 318.20 161.99 316.48 168.53 C 316.72 168.64 317.20 168.84 317.44 168.94 C 319.74 163.47 322.19 158.04 324.39 152.53 C 325.01 151.42 324.28 150.43 323.62 149.59 M 351.11 167.04 C 350.80 169.50 353.17 170.74 354.99 171.69 C 355.50 168.24 356.67 164.39 354.77 161.15 C 352.03 161.14 351.36 164.89 351.11 167.04 M 301.62 188.59 C 296.35 194.89 294.18 203.50 294.73 211.60 C 296.20 211.36 297.44 210.54 298.23 209.28 C 300.79 205.69 302.71 201.67 304.48 197.64 C 305.25 194.33 305.24 190.88 305.56 187.51 C 304.11 187.20 302.52 187.20 301.62 188.59 M 371.32 205.98 C 374.80 202.02 376.89 197.11 379.63 192.65 C 380.76 190.61 382.41 188.67 382.37 186.20 C 375.78 190.55 373.26 198.73 371.32 205.98 M 316.10 193.98 C 313.29 203.49 310.44 213.00 308.01 222.62 C 313.89 222.64 319.78 222.62 325.66 222.66 C 322.43 216.06 319.98 209.09 318.33 201.93 C 317.68 199.25 317.50 196.41 316.10 193.98 M 304.40 238.92 C 317.87 241.71 330.80 246.53 343.77 251.03 C 338.07 243.71 332.75 236.05 328.40 227.84 C 327.63 226.62 327.20 225.11 326.05 224.20 C 319.98 223.53 313.86 224.14 307.78 223.76 C 306.36 228.74 305.12 233.79 304.40 238.92 M 351.70 257.30 C 356.55 263.06 362.17 268.19 368.06 272.89 C 371.66 275.56 375.38 278.74 380.08 278.97 C 379.46 276.81 378.29 274.86 376.62 273.36 C 369.49 266.41 360.60 261.61 351.70 257.30 Z" />
<path fill="#72b655" opacity="1.00" d=" M 353.19 93.19 C 358.74 92.16 354.89 100.73 351.06 99.34 C 348.38 97.57 351.07 94.09 353.19 93.19 Z" />
<path fill="#72b655" opacity="1.00" d=" M 216.64 140.58 C 219.02 137.04 221.67 133.13 225.93 131.75 C 228.17 131.02 230.94 132.59 231.31 134.93 C 232.31 140.74 229.79 146.33 227.59 151.56 C 220.75 167.15 212.29 182.14 201.66 195.47 C 200.08 200.09 200.53 205.33 202.08 209.92 C 202.87 212.57 205.61 213.59 207.96 214.43 C 215.01 212.46 219.67 206.17 223.14 200.10 C 225.96 193.72 228.66 186.79 234.30 182.32 C 237.50 179.65 243.61 181.48 243.82 185.95 C 245.29 190.59 243.16 195.30 243.77 200.01 C 244.14 203.04 244.30 206.35 246.04 208.98 C 248.31 210.60 251.50 210.31 253.77 208.82 C 257.85 206.27 261.19 202.65 263.81 198.65 C 264.82 197.14 265.76 195.48 267.50 194.68 C 265.80 198.92 262.70 202.39 259.85 205.90 C 256.61 209.58 251.73 213.20 246.55 211.53 C 241.71 209.18 240.62 203.41 239.60 198.66 C 236.58 200.82 235.76 204.78 233.46 207.58 C 231.54 210.59 227.83 213.82 224.09 211.87 C 221.27 210.78 222.71 207.08 222.33 204.77 C 218.67 209.28 214.72 213.96 209.09 216.02 C 204.58 217.78 198.53 216.07 196.73 211.29 C 194.20 204.50 195.24 197.04 196.51 190.09 C 200.28 172.59 207.11 155.74 216.64 140.58 M 219.11 147.08 C 211.75 161.07 205.95 175.95 202.33 191.35 C 207.33 186.44 211.00 180.40 214.57 174.43 C 219.36 166.37 223.93 158.14 227.48 149.45 C 229.03 145.08 231.43 140.17 229.11 135.61 C 224.11 137.53 221.89 142.91 219.11 147.08 M 233.69 190.94 C 230.93 195.32 228.96 200.21 227.94 205.28 C 232.84 199.66 235.36 192.42 239.74 186.41 C 236.92 186.33 235.18 188.93 233.69 190.94 Z" />
<path fill="#72b655" opacity="1.00" d=" M 254.26 146.10 C 254.84 143.99 256.38 142.41 258.06 141.10 C 260.57 142.41 261.63 145.54 260.05 147.99 C 255.06 156.28 249.31 164.09 244.31 172.39 C 243.33 174.29 241.60 175.60 239.56 176.21 C 240.20 174.14 241.20 172.22 242.36 170.40 C 247.08 162.70 251.48 154.72 254.26 146.10 Z" />
</g>
</svg>
