<?xml version="1.0" encoding="UTF-8" ?>
<!DOCTYPE svg PUBLIC "-//W3C//DTD SVG 1.1//EN" "http://www.w3.org/Graphics/SVG/1.1/DTD/svg11.dtd">
<svg width="500pt" height="287pt" viewBox="0 0 500 287" version="1.1" xmlns="http://www.w3.org/2000/svg">
<g id="#212121ff">
<path fill="#212121" opacity="1.00" d=" M 85.15 8.23 C 89.19 6.13 94.47 4.67 98.53 7.53 C 102.20 9.60 102.95 14.18 103.02 18.02 C 102.69 25.51 101.05 32.88 98.93 40.05 C 94.76 53.91 89.75 67.55 83.69 80.70 C 82.48 84.77 75.45 81.76 77.79 78.08 C 85.46 63.77 92.20 48.84 96.48 33.13 C 98.08 26.05 100.24 18.44 97.75 11.31 C 94.03 8.70 89.06 10.09 85.54 12.34 C 80.78 15.54 76.38 19.26 72.46 23.45 C 57.75 39.78 45.52 58.23 35.34 77.69 C 24.28 98.95 14.26 121.67 13.12 145.95 C 13.16 153.35 13.55 161.47 18.30 167.55 C 22.27 173.10 29.22 176.50 36.06 175.64 C 46.73 174.74 56.10 168.78 64.26 162.25 C 80.49 148.90 94.18 132.67 105.79 115.20 C 104.88 112.97 103.72 110.49 104.68 108.05 C 106.62 102.28 113.00 98.51 118.99 99.15 C 121.19 99.64 124.36 96.96 125.73 99.63 C 122.31 101.68 126.06 104.32 126.14 107.01 C 126.89 110.31 126.58 113.71 126.04 117.03 C 129.62 116.42 133.19 115.77 136.69 114.79 C 137.96 110.82 139.02 106.68 140.96 102.98 C 142.95 100.23 147.36 102.80 146.29 105.93 C 144.71 112.64 142.94 119.41 140.48 125.82 C 140.71 125.76 141.19 125.65 141.42 125.60 C 144.38 119.45 148.27 113.61 153.03 108.72 C 155.36 105.97 159.80 106.73 161.52 109.76 C 163.64 113.92 161.30 118.68 162.30 123.03 C 163.92 126.60 168.53 125.92 171.38 124.37 C 176.15 121.74 181.03 118.30 182.99 112.98 C 185.14 108.32 187.89 103.08 193.07 101.31 C 195.79 100.28 198.79 101.70 200.52 103.85 C 202.17 102.28 204.48 100.41 206.89 101.52 C 210.14 102.88 210.27 106.92 210.07 109.92 C 207.72 130.18 201.77 149.81 195.09 169.02 C 191.42 179.34 187.65 189.67 182.66 199.44 C 180.31 203.49 177.78 208.20 173.11 209.87 C 169.74 210.68 167.10 207.38 166.16 204.52 C 164.91 200.12 164.83 195.47 165.06 190.93 C 166.32 177.06 169.15 163.05 175.70 150.64 C 178.44 145.76 182.85 140.52 188.95 140.62 C 190.18 140.81 192.18 140.38 192.60 141.97 C 192.23 143.75 190.16 142.54 188.96 142.68 C 184.77 142.71 181.43 145.98 179.25 149.27 C 173.67 157.83 171.32 167.99 169.47 177.91 C 168.43 185.85 167.11 194.11 169.57 201.94 C 169.87 203.04 170.60 204.50 172.03 204.14 C 175.31 202.80 176.79 199.24 178.40 196.34 C 184.98 182.80 188.95 168.22 193.45 153.90 C 197.77 139.62 202.04 125.21 203.49 110.30 C 199.74 116.28 196.92 122.84 192.69 128.52 C 190.60 130.99 187.62 134.12 184.02 132.83 C 179.64 131.44 179.86 125.93 180.04 122.20 C 176.26 125.39 172.05 128.63 166.95 129.10 C 163.18 129.74 159.04 127.99 157.10 124.65 C 155.14 120.71 155.21 116.20 154.72 111.93 C 147.53 117.37 145.41 127.12 138.86 133.16 C 137.11 134.76 134.28 133.03 133.95 130.96 C 133.20 126.45 134.79 122.02 135.89 117.70 C 132.38 118.66 128.81 119.38 125.25 120.13 C 123.63 124.87 121.54 130.06 116.74 132.39 C 113.47 134.25 109.27 132.24 107.65 129.10 C 105.84 125.83 106.00 121.94 106.60 118.36 C 100.41 128.02 93.31 137.08 85.80 145.75 C 75.66 157.14 64.56 168.04 51.05 175.36 C 43.57 179.19 34.77 181.83 26.43 179.45 C 17.74 177.10 11.30 169.40 8.82 160.97 C 6.43 153.94 6.54 146.40 7.31 139.11 C 9.86 115.82 19.40 93.99 30.45 73.57 C 38.38 59.51 47.24 45.94 57.26 33.26 C 65.33 23.71 73.96 14.18 85.15 8.23 M 107.28 111.23 C 107.51 112.47 109.72 111.65 109.20 110.36 C 110.29 107.56 112.27 105.25 114.39 103.18 C 110.47 103.75 108.18 107.70 107.28 111.23 M 120.53 104.26 C 117.23 107.67 115.05 111.99 113.60 116.47 C 116.29 117.10 119.06 117.49 121.83 117.27 C 122.78 113.46 123.78 109.28 122.34 105.48 C 121.97 104.89 121.25 102.91 120.53 104.26 M 186.08 126.08 C 191.14 121.03 193.51 114.06 197.32 108.13 C 196.69 107.97 195.43 107.66 194.80 107.50 C 188.94 111.64 187.04 119.34 186.08 126.08 M 112.80 119.95 C 112.49 122.32 112.52 124.73 113.12 127.06 C 116.93 127.51 118.84 123.33 120.49 120.58 C 117.93 120.39 115.36 120.18 112.80 119.95 Z" />
<path fill="#212121" opacity="1.00" d=" M 141.36 48.48 C 145.62 46.83 151.02 49.53 152.10 54.02 C 153.35 59.08 150.77 64.02 148.29 68.26 C 144.89 73.53 140.79 78.44 135.88 82.35 C 135.05 81.70 132.96 80.60 134.37 79.37 C 137.70 76.40 140.83 73.19 143.12 69.32 C 140.31 71.71 137.24 68.76 135.31 66.71 C 133.25 64.33 130.76 61.32 131.68 57.96 C 132.92 53.36 136.93 49.92 141.36 48.48 M 136.16 59.95 C 138.21 63.25 143.55 64.17 143.40 68.79 C 145.39 64.10 148.00 58.47 145.62 53.46 C 141.66 50.35 136.22 55.85 136.16 59.95 Z" />
<path fill="#212121" opacity="1.00" d=" M 331.14 54.97 C 332.86 52.56 335.91 55.03 336.44 57.13 C 337.19 58.67 336.56 60.36 336.25 61.92 C 333.89 70.98 331.16 79.94 328.97 89.04 C 328.54 91.06 327.26 93.39 324.86 93.23 C 325.85 84.11 328.99 75.30 329.41 66.07 C 330.01 62.41 328.81 58.15 331.14 54.97 Z" />
<path fill="#212121" opacity="1.00" d=" M 120.75 77.06 C 121.43 74.29 124.93 75.75 126.85 76.01 C 130.46 79.64 128.18 85.43 129.78 89.90 C 129.95 92.72 133.20 95.08 131.67 97.89 C 129.72 99.39 127.02 98.09 125.45 96.62 C 123.79 92.60 123.11 88.28 122.30 84.03 C 118.78 90.53 114.70 97.35 107.93 100.89 C 106.28 101.44 104.06 102.80 102.48 101.52 C 101.95 99.27 104.59 98.10 105.98 96.85 C 112.95 92.13 118.13 85.04 120.75 77.06 Z" />
<path fill="#212121" opacity="1.00" d=" M 298.53 78.64 C 300.36 77.34 303.14 77.84 304.32 79.75 C 306.22 82.67 305.61 86.37 304.75 89.53 C 304.25 91.36 303.00 93.21 303.88 95.13 C 304.58 96.79 302.36 96.98 301.40 97.49 C 299.11 101.19 296.98 104.98 294.92 108.81 C 294.38 110.00 292.97 110.32 291.96 110.99 C 291.55 115.88 292.61 121.34 296.37 124.78 C 303.44 128.34 310.30 121.89 313.77 116.22 C 311.56 113.84 310.47 110.20 311.94 107.15 C 314.27 101.35 320.95 98.48 326.90 99.14 C 328.69 99.27 331.85 96.98 332.57 99.66 C 330.52 101.12 330.90 102.90 332.68 104.31 C 334.53 101.31 336.32 98.27 337.88 95.11 C 335.66 92.97 333.04 90.48 333.53 87.07 C 333.79 82.80 336.89 76.90 342.00 78.12 C 347.13 81.40 344.95 88.47 343.06 93.10 C 343.95 95.08 343.53 97.00 341.22 97.55 C 338.61 100.64 337.00 104.54 334.88 108.00 C 332.93 110.59 333.80 114.01 332.63 116.88 C 336.30 116.56 339.96 115.90 343.46 114.71 C 344.39 112.33 344.92 109.51 346.89 107.75 C 348.78 106.14 351.53 107.81 352.07 109.94 C 350.90 115.77 347.21 121.13 347.99 127.28 C 353.03 125.47 358.25 124.31 363.49 123.32 C 366.69 120.96 369.27 117.88 371.83 114.85 C 372.72 113.41 374.77 114.32 374.72 115.95 C 372.84 118.62 370.36 120.77 368.16 123.15 C 385.20 122.66 401.77 129.64 414.94 140.15 C 428.77 151.15 439.81 166.40 443.61 183.85 C 445.66 193.43 444.68 204.53 437.76 212.01 C 431.15 218.75 421.25 222.14 411.90 220.85 C 399.22 218.97 388.75 209.52 383.62 198.05 C 379.84 203.04 377.94 210.06 371.94 212.94 C 366.77 214.53 363.98 207.94 365.84 203.90 C 362.24 206.05 358.55 209.01 354.04 208.51 C 348.34 208.08 344.45 203.08 342.52 198.12 C 340.39 202.88 338.52 208.11 334.47 211.60 C 331.49 214.20 326.66 213.80 324.04 210.91 C 321.99 205.74 323.28 199.97 324.76 194.82 C 326.23 190.39 327.57 185.87 329.66 181.69 C 330.61 179.52 334.18 180.12 335.03 182.06 C 336.01 183.52 334.89 185.20 334.47 186.65 C 331.91 193.15 329.22 199.90 329.46 207.02 C 332.74 204.55 334.19 200.55 336.01 197.03 C 338.51 192.05 340.26 186.73 342.64 181.71 C 344.19 178.98 348.36 180.76 348.47 183.61 C 349.84 180.69 351.60 177.97 352.98 175.05 C 350.96 173.19 348.58 171.09 348.62 168.09 C 348.56 164.26 350.35 159.89 354.01 158.24 C 356.76 156.92 359.51 159.46 360.02 162.06 C 360.65 165.87 359.65 169.74 358.03 173.17 C 358.24 173.88 358.67 175.29 358.88 176.00 C 357.62 176.86 355.93 177.34 355.24 178.83 C 353.02 182.46 351.00 186.20 348.95 189.93 C 348.36 190.18 347.17 190.67 346.57 190.92 C 346.21 195.84 347.30 201.45 351.12 204.85 C 357.33 208.06 363.59 202.97 367.10 198.15 C 370.11 192.36 372.33 185.47 378.16 181.83 C 381.46 179.50 386.74 181.09 387.83 185.08 C 388.03 188.65 387.60 192.27 388.25 195.83 C 391.21 209.16 404.01 220.17 417.93 219.48 C 428.26 219.20 438.90 212.46 441.45 202.06 C 444.04 191.09 440.08 179.80 434.68 170.31 C 425.05 153.77 410.50 139.74 392.78 132.21 C 383.42 128.44 373.11 126.13 363.01 127.48 C 358.01 130.60 352.05 134.49 345.97 132.04 C 343.05 132.65 340.45 134.35 338.01 135.98 C 335.74 140.25 334.17 144.87 332.25 149.31 C 331.39 150.90 332.40 152.54 332.89 154.06 C 335.39 160.56 339.06 167.10 345.22 170.75 C 346.48 171.63 349.30 173.38 347.18 174.96 C 346.64 175.01 345.55 175.11 345.00 175.16 C 338.19 171.69 333.01 165.71 328.48 159.69 C 324.19 169.47 321.26 179.80 317.87 189.92 C 316.83 192.38 317.86 194.99 318.27 197.48 C 319.94 205.94 322.64 214.17 326.34 221.95 C 356.23 222.34 386.15 222.54 416.04 223.15 C 436.02 223.97 456.04 224.22 475.92 226.39 C 480.94 227.12 486.08 227.54 490.91 229.17 C 493.52 230.20 492.80 234.39 490.00 234.53 C 473.18 230.33 455.77 229.44 438.55 228.13 C 401.68 225.94 364.75 224.98 327.82 224.64 C 332.59 233.38 338.48 241.45 344.81 249.12 C 346.04 250.46 347.09 252.15 348.88 252.81 C 359.19 257.39 369.46 262.57 377.92 270.16 C 380.33 272.55 383.18 275.41 383.04 279.06 C 382.02 283.02 377.22 282.46 374.48 280.79 C 363.31 274.75 354.97 264.83 346.59 255.55 C 334.52 249.88 321.78 245.71 309.00 241.93 C 307.43 241.41 305.81 241.12 304.18 240.96 C 303.43 246.66 302.40 252.38 303.08 258.14 C 303.40 260.81 298.81 261.17 298.28 258.70 C 296.86 252.36 300.13 245.82 300.55 239.70 C 275.55 233.20 249.92 229.07 224.17 227.00 C 224.89 226.44 225.62 225.87 226.34 225.31 C 251.57 227.79 276.70 231.68 301.38 237.56 C 302.70 233.15 303.89 228.71 305.09 224.27 C 280.40 224.09 255.70 224.15 231.01 224.21 C 226.38 224.26 221.73 223.93 217.13 224.53 C 219.08 224.64 221.07 224.88 223.00 224.32 C 223.14 224.98 223.43 226.30 223.58 226.95 C 210.43 225.54 197.19 224.62 183.96 224.91 C 144.95 225.28 105.95 226.54 66.94 227.08 C 64.83 227.57 64.66 225.40 64.81 223.91 C 74.46 222.52 84.28 222.40 94.02 221.88 C 126.64 220.18 159.36 220.59 191.96 222.41 C 229.90 222.34 267.83 222.05 305.77 222.04 C 308.61 211.70 311.66 201.43 314.75 191.16 C 315.83 188.21 314.94 185.06 314.83 182.03 C 312.79 185.33 311.46 189.08 311.20 192.96 C 311.29 195.46 308.97 196.71 307.70 198.49 C 305.15 203.63 303.53 209.26 300.30 214.05 C 298.87 216.31 295.59 217.11 293.34 215.63 C 289.35 213.45 288.41 208.31 288.71 204.15 C 289.37 196.64 292.33 189.12 297.53 183.59 C 300.98 179.89 307.46 179.79 310.44 184.11 C 311.86 179.35 315.18 175.18 315.28 170.08 C 315.32 166.22 317.49 162.49 316.63 158.69 C 317.44 159.09 318.26 159.48 319.09 159.86 C 318.64 162.55 317.86 165.18 317.35 167.87 C 319.64 162.95 321.69 157.92 323.80 152.92 C 324.31 152.07 323.95 151.14 323.72 150.28 C 322.23 153.00 320.80 155.77 319.93 158.75 C 319.39 158.06 318.86 157.36 318.34 156.66 C 320.37 151.62 322.88 146.69 326.46 142.56 C 331.48 137.80 332.43 130.54 336.09 124.90 C 338.12 123.61 341.69 125.25 341.11 127.90 C 341.12 129.57 339.48 130.65 339.40 132.29 C 339.73 130.45 341.87 130.32 343.20 129.54 C 341.12 126.01 341.58 121.77 342.21 117.90 C 338.88 118.70 335.55 119.43 332.21 120.12 C 330.47 124.63 328.81 129.89 324.06 132.09 C 321.28 133.93 317.51 132.94 315.49 130.45 C 312.99 128.01 313.09 124.29 313.09 121.06 C 309.50 125.04 304.87 129.16 299.08 128.46 C 293.68 127.95 290.14 123.31 288.03 118.76 C 284.90 122.91 283.77 129.63 278.56 132.39 C 275.61 134.22 271.43 133.30 269.25 130.71 C 268.23 127.79 268.41 124.63 268.61 121.60 C 264.02 127.03 259.25 132.86 252.59 135.79 C 248.90 137.48 243.53 137.23 241.51 133.19 C 238.32 127.31 239.69 120.04 241.97 114.06 C 244.56 107.84 247.62 100.83 254.14 97.88 C 256.33 96.49 259.35 97.27 260.85 99.29 C 263.04 103.23 261.05 108.17 257.93 110.98 C 255.59 112.19 252.60 109.89 253.31 107.34 C 248.80 113.93 245.08 121.81 245.53 129.93 C 245.97 134.16 251.11 133.44 253.75 131.74 C 260.07 127.97 264.83 122.13 269.29 116.38 C 271.64 111.48 272.55 105.94 275.27 101.17 C 277.21 99.07 281.37 101.08 280.75 103.88 C 278.26 111.39 274.25 118.84 275.01 126.99 C 280.23 121.60 282.48 114.14 285.52 107.43 C 286.84 104.98 286.95 101.18 290.05 100.31 C 291.80 100.20 293.11 101.48 293.79 102.97 C 295.48 100.50 297.21 97.92 298.04 95.02 C 296.52 93.17 294.45 91.56 294.00 89.07 C 293.52 85.16 295.24 80.87 298.53 78.64 M 299.81 91.05 C 300.70 87.80 301.35 84.30 299.71 81.17 C 296.58 83.60 295.51 89.26 299.81 91.05 M 339.60 90.96 C 339.94 87.75 341.21 84.01 338.97 81.19 C 336.27 83.86 334.95 89.60 339.60 90.96 M 315.43 112.06 C 316.50 108.53 318.98 105.78 321.10 102.87 C 317.70 104.17 313.44 108.23 315.43 112.06 M 320.50 116.47 C 323.23 117.07 326.03 117.47 328.83 117.19 C 329.68 112.80 331.55 107.31 328.05 103.62 C 324.48 107.18 322.04 111.70 320.50 116.47 M 320.09 127.10 C 323.86 127.44 325.75 123.33 327.42 120.61 C 324.95 120.40 322.48 119.99 319.99 120.09 C 318.78 122.09 319.67 124.87 320.09 127.10 M 317.30 175.44 C 315.83 178.39 316.43 181.77 316.54 184.93 C 319.77 174.98 322.99 165.01 325.82 154.94 C 322.64 161.62 320.28 168.66 317.30 175.44 M 354.60 171.11 C 355.22 167.85 355.93 164.41 354.46 161.26 C 351.08 163.49 350.23 169.49 354.60 171.11 M 372.20 204.03 C 374.96 200.66 376.67 196.62 378.91 192.92 C 380.01 190.95 381.50 189.14 382.03 186.90 C 376.53 190.92 374.27 197.82 372.20 204.03 M 299.70 192.01 C 296.38 197.75 294.70 204.55 295.22 211.18 C 297.70 210.10 298.84 207.51 300.17 205.35 C 301.62 202.50 303.25 199.72 304.35 196.72 C 304.55 193.74 304.85 190.76 305.06 187.78 C 302.33 187.35 300.97 190.14 299.70 192.01 M 315.08 198.91 C 312.90 206.61 310.61 214.28 308.66 222.04 C 314.07 222.15 319.48 222.08 324.89 222.10 C 320.79 213.78 318.17 204.80 316.52 195.70 C 315.79 196.64 315.39 197.77 315.08 198.91 M 308.13 224.28 C 306.79 228.89 305.87 233.60 304.84 238.29 C 317.64 241.79 330.59 245.18 342.75 250.56 C 336.33 242.38 330.95 233.48 325.81 224.46 C 319.91 224.50 314.02 224.40 308.13 224.28 M 369.45 273.32 C 372.45 275.51 375.53 277.89 379.32 278.46 C 378.70 275.83 376.59 274.03 374.72 272.26 C 368.34 266.51 360.73 262.41 353.18 258.44 C 358.26 263.75 363.58 268.88 369.45 273.32 Z" />
<path fill="#212121" opacity="1.00" d=" M 352.29 93.16 C 353.47 92.49 354.69 92.46 355.93 93.08 C 357.73 96.08 354.22 100.42 351.05 99.77 C 348.06 98.31 350.14 94.35 352.29 93.16 Z" />
<path fill="#212121" opacity="1.00" d=" M 216.29 140.34 C 218.86 136.35 222.00 132.03 226.95 131.04 C 229.22 131.20 231.47 132.69 231.86 135.07 C 232.71 140.95 230.11 146.56 227.92 151.86 C 221.56 166.37 213.74 180.33 204.19 192.98 C 200.72 196.00 200.96 200.99 201.44 205.15 C 201.87 208.20 202.60 212.09 205.98 213.15 C 208.03 214.16 210.35 213.35 212.11 212.16 C 216.90 208.93 220.48 204.17 223.11 199.10 C 225.72 192.82 228.63 186.23 234.11 181.91 C 237.12 179.43 242.27 180.58 243.88 184.13 C 244.30 186.69 245.40 189.27 244.74 191.89 C 243.66 197.54 244.05 203.55 246.29 208.87 C 248.45 209.42 250.84 210.06 252.87 208.76 C 258.76 205.54 262.57 199.81 266.24 194.39 C 266.66 194.62 267.50 195.07 267.92 195.30 C 265.31 200.01 262.04 204.40 258.24 208.21 C 255.07 211.17 250.41 213.70 246.06 211.85 C 241.51 209.36 240.14 203.93 239.28 199.21 C 235.99 203.30 234.48 208.92 229.89 211.89 C 227.54 213.57 223.95 213.24 222.19 210.90 C 221.75 209.30 221.89 207.63 221.68 206.00 C 218.70 210.50 214.53 214.26 209.54 216.38 C 204.85 218.33 198.40 216.70 196.41 211.70 C 193.64 204.77 194.74 197.04 196.06 189.91 C 199.87 172.38 206.73 155.51 216.29 140.34 M 225.47 138.53 C 219.46 145.72 215.77 154.44 212.12 162.98 C 208.39 171.73 205.42 180.80 203.09 190.02 C 207.08 185.61 210.40 180.66 213.41 175.55 C 219.04 166.11 224.55 156.49 228.27 146.11 C 229.21 142.90 230.87 139.14 228.63 136.09 C 227.50 136.79 226.35 137.51 225.47 138.53 M 228.24 203.22 C 227.63 204.65 229.04 205.12 229.52 203.72 C 231.98 197.64 235.83 192.29 238.88 186.53 C 232.84 190.14 231.26 197.42 228.24 203.22 Z" />
<path fill="#212121" opacity="1.00" d=" M 252.22 150.50 C 253.60 146.97 254.26 142.63 258.00 140.74 C 261.04 141.84 262.11 145.43 260.48 148.12 C 255.35 156.66 249.45 164.72 244.30 173.24 C 243.35 175.01 241.63 176.17 239.67 176.53 C 238.83 174.86 240.24 173.39 240.90 171.98 C 245.09 165.05 249.27 158.06 252.22 150.50 Z" />
</g>
</svg>
