<?xml version="1.0" encoding="UTF-8" ?>
<!DOCTYPE svg PUBLIC "-//W3C//DTD SVG 1.1//EN" "http://www.w3.org/Graphics/SVG/1.1/DTD/svg11.dtd">
<svg width="500pt" height="287pt" viewBox="0 0 500 287" version="1.1" xmlns="http://www.w3.org/2000/svg">
<g id="#ffffffff">
<path fill="#ffffff" opacity="1.00" d=" M 84.49 8.73 C 88.66 6.41 94.23 4.75 98.52 7.68 C 101.77 9.53 102.73 13.49 102.75 16.96 C 102.86 24.83 100.95 32.54 98.78 40.05 C 94.64 53.87 89.61 67.45 83.62 80.58 C 82.92 83.13 79.05 83.15 77.95 80.93 C 76.66 79.54 78.17 77.83 78.72 76.48 C 84.49 65.94 89.40 54.93 93.40 43.60 C 96.27 35.03 99.07 26.21 98.92 17.08 C 98.86 14.91 98.75 12.52 97.24 10.81 C 93.67 8.57 89.25 10.06 85.90 11.97 C 77.10 17.53 70.16 25.44 63.75 33.52 C 54.95 44.48 47.10 56.19 40.26 68.46 C 31.52 83.76 23.86 99.74 18.42 116.51 C 14.71 128.28 12.38 140.68 13.29 153.05 C 13.60 158.01 14.82 163.06 17.80 167.11 C 21.53 172.68 28.20 176.34 34.97 175.80 C 46.35 175.35 56.33 168.83 64.92 161.90 C 80.94 148.63 94.43 132.52 105.93 115.25 C 100.98 107.37 110.12 98.47 118.09 99.35 C 120.75 99.97 123.68 97.26 125.88 99.59 C 125.36 100.06 124.31 101.00 123.79 101.47 C 126.59 106.14 127.02 111.78 125.90 117.03 C 129.52 116.51 133.28 116.21 136.68 114.78 C 138.26 110.91 139.15 106.76 141.00 103.00 C 143.13 100.59 147.26 102.99 146.18 106.05 C 144.50 112.80 142.57 119.49 140.56 126.15 C 144.85 120.20 148.10 113.36 153.60 108.39 C 156.02 106.00 160.49 107.33 161.67 110.38 C 163.60 114.67 160.72 119.43 162.51 123.72 C 164.51 126.69 168.69 125.95 171.42 124.50 C 176.19 121.90 181.04 118.43 183.05 113.17 C 185.20 108.54 187.86 103.22 193.05 101.49 C 195.84 100.47 198.66 101.93 200.54 103.95 C 202.31 102.38 204.46 100.66 206.98 101.61 C 210.39 103.44 210.01 107.77 209.80 111.04 C 207.10 132.72 200.43 153.66 193.11 174.17 C 189.84 182.95 186.56 191.77 182.16 200.06 C 180.09 203.63 177.77 207.52 173.94 209.42 C 170.36 211.01 167.24 207.60 166.29 204.46 C 165.00 200.09 165.12 195.45 165.26 190.95 C 166.23 178.11 168.98 165.29 174.35 153.55 C 176.70 148.68 179.86 143.60 185.07 141.44 C 187.46 140.30 190.17 140.65 192.63 141.35 C 192.49 141.71 192.22 142.43 192.09 142.79 C 186.47 141.12 181.46 145.27 178.74 149.79 C 173.02 159.09 170.60 169.97 168.94 180.63 C 168.14 187.89 167.23 195.52 169.66 202.57 C 170.07 203.80 171.79 205.31 172.94 203.91 C 176.01 201.81 177.54 198.28 179.17 195.07 C 185.51 181.60 189.42 167.18 193.87 153.01 C 198.05 138.95 202.38 124.77 203.57 110.07 C 198.79 116.92 196.22 125.37 189.97 131.11 C 187.72 133.60 183.17 133.57 181.33 130.62 C 179.84 127.99 180.21 124.82 180.26 121.92 C 176.63 124.79 172.87 128.01 168.14 128.75 C 163.66 130.09 158.05 127.74 156.59 123.13 C 155.19 119.49 155.50 115.52 154.73 111.75 C 147.48 117.16 145.33 126.87 138.88 133.03 C 136.80 134.80 133.92 132.41 133.88 130.05 C 133.57 125.77 135.12 121.65 136.02 117.52 C 132.46 118.48 128.85 119.30 125.21 119.91 C 123.53 124.32 121.90 129.34 117.51 131.80 C 114.53 133.95 110.04 132.77 108.19 129.69 C 105.84 126.32 106.37 122.03 106.60 118.17 C 96.66 133.30 85.11 147.44 71.96 159.90 C 62.39 168.33 51.90 176.78 39.15 179.56 C 31.02 181.59 21.76 179.23 16.01 173.03 C 9.49 166.54 7.15 157.02 6.89 148.09 C 7.24 133.00 10.83 118.13 16.31 104.12 C 25.67 79.69 39.33 57.10 55.07 36.28 C 63.49 25.81 72.64 15.41 84.49 8.73 M 107.68 111.98 C 110.16 109.02 111.99 105.58 114.71 102.82 C 110.55 103.69 107.35 107.69 107.68 111.98 M 113.33 116.56 C 116.15 117.29 119.06 117.62 121.98 117.49 C 123.06 112.83 124.41 107.40 121.17 103.26 C 117.57 107.04 114.98 111.63 113.33 116.56 M 186.07 126.29 C 191.30 121.10 193.70 113.90 197.68 107.82 C 196.80 107.77 195.05 107.67 194.17 107.63 C 188.90 112.24 186.56 119.48 186.07 126.29 M 112.62 119.58 C 112.46 122.38 111.89 125.49 113.88 127.83 C 117.16 126.46 119.13 123.45 120.82 120.49 C 118.07 120.37 115.33 120.09 112.62 119.58 Z" />
<path fill="#ffffff" opacity="1.00" d=" M 131.58 60.03 C 131.83 53.79 137.91 48.63 143.95 48.22 C 149.50 47.82 153.65 53.84 152.11 59.00 C 149.93 67.90 143.59 75.07 137.10 81.22 C 135.87 82.80 134.70 81.02 133.63 80.29 C 136.90 76.83 141.34 73.92 142.79 69.17 C 142.29 69.48 141.30 70.11 140.81 70.42 C 136.46 68.54 132.81 64.63 131.58 60.03 M 136.10 60.04 C 138.02 63.10 142.40 64.02 143.30 67.85 C 143.51 67.81 143.91 67.74 144.12 67.70 C 145.73 63.72 147.30 59.40 146.47 55.05 C 146.09 53.11 144.06 51.73 142.12 52.43 C 139.01 53.58 135.98 56.51 136.10 60.04 Z" />
<path fill="#ffffff" opacity="1.00" d=" M 329.49 67.06 C 330.05 62.66 328.75 57.60 332.01 53.98 C 335.05 54.05 337.21 56.95 336.53 59.90 C 334.38 69.33 331.31 78.52 329.12 87.94 C 328.71 90.24 327.63 92.98 324.90 93.15 C 326.09 84.40 328.89 75.91 329.49 67.06 Z" />
<path fill="#ffffff" opacity="1.00" d=" M 109.97 93.89 C 115.67 89.10 119.12 82.29 121.66 75.42 C 124.09 75.73 127.72 75.30 128.34 78.47 C 129.19 84.45 128.62 91.05 132.39 96.20 C 131.42 99.54 127.42 98.51 125.58 96.57 C 123.87 92.44 123.27 87.97 122.27 83.64 C 118.95 90.09 114.97 96.72 108.50 100.44 C 106.59 101.62 104.32 101.87 102.13 101.64 C 103.38 97.93 107.34 96.44 109.97 93.89 Z" />
<path fill="#ffffff" opacity="1.00" d=" M 297.62 79.42 C 299.54 77.47 303.36 77.68 304.53 80.37 C 306.60 84.51 304.77 89.24 303.29 93.27 C 304.35 95.33 303.68 97.18 301.23 97.49 C 298.97 101.16 296.88 104.93 294.81 108.71 C 294.28 109.98 292.78 110.27 291.71 110.90 C 291.45 115.98 292.48 122.06 296.85 125.22 C 304.05 128.08 310.33 121.82 313.94 116.31 C 312.29 114.31 311.04 111.77 311.50 109.11 C 312.66 103.05 319.01 99.00 324.97 99.35 C 327.09 99.59 329.08 98.73 331.16 98.50 C 333.85 98.54 331.54 101.07 330.52 101.74 C 331.02 102.50 332.02 104.00 332.51 104.75 C 334.53 101.63 336.42 98.42 338.02 95.07 C 335.47 92.79 332.77 89.75 333.74 86.02 C 334.36 82.05 337.82 76.51 342.51 78.60 C 346.84 82.19 344.61 88.72 342.89 93.16 C 343.04 93.88 343.34 95.31 343.49 96.02 C 342.31 96.92 340.70 97.36 340.03 98.80 C 337.65 102.49 335.74 106.45 333.46 110.21 C 333.44 112.53 333.20 114.86 332.68 117.13 C 336.32 116.60 339.98 116.06 343.49 114.90 C 344.43 112.48 345.09 109.82 346.87 107.85 C 348.92 106.29 352.50 108.25 351.69 110.91 C 350.33 116.43 347.08 121.65 347.75 127.53 C 352.87 125.64 358.19 124.47 363.53 123.44 C 367.01 120.98 369.57 117.51 372.45 114.43 C 373.63 114.09 374.37 114.59 374.65 115.91 C 372.64 118.63 370.09 120.87 367.79 123.32 C 384.92 122.69 401.58 129.70 414.83 140.23 C 427.90 150.71 438.55 164.84 442.84 181.22 C 445.00 189.26 445.30 198.20 441.70 205.88 C 436.71 216.44 424.17 221.93 412.89 220.80 C 399.81 219.38 388.86 209.63 383.72 197.84 C 379.72 202.67 378.02 209.86 371.99 212.70 C 366.33 214.55 363.94 206.83 366.13 202.77 C 362.38 206.62 356.54 209.98 351.10 207.68 C 346.74 206.09 344.36 201.90 342.45 197.96 C 339.62 203.80 337.38 212.03 330.00 213.35 C 327.42 213.07 323.77 212.03 323.52 208.93 C 322.11 199.65 326.14 190.79 329.45 182.36 C 330.32 178.83 336.26 180.71 335.23 184.05 C 332.62 191.57 328.83 199.09 329.39 207.28 C 330.53 206.38 331.62 205.38 332.38 204.12 C 336.72 197.09 339.41 189.23 342.77 181.74 C 344.51 179.05 347.90 181.09 348.69 183.50 C 350.10 180.65 351.71 177.91 353.11 175.05 C 351.09 173.17 348.74 171.03 348.70 168.05 C 348.67 164.84 350.01 161.55 352.40 159.37 C 354.04 157.81 357.06 157.57 358.56 159.46 C 360.29 161.57 360.44 164.54 359.83 167.10 C 359.42 170.16 357.30 173.00 358.60 176.13 C 352.08 178.68 352.64 188.24 346.38 190.92 C 346.10 195.93 347.17 201.61 351.11 205.05 C 357.63 208.03 364.21 202.92 367.59 197.63 C 370.38 191.77 372.88 184.94 378.88 181.60 C 382.04 179.71 386.69 181.55 387.64 185.10 C 387.77 189.10 387.30 193.20 388.43 197.11 C 391.91 209.91 404.40 220.31 417.95 219.62 C 427.72 219.33 437.76 213.41 441.02 203.89 C 444.41 193.95 441.29 183.21 436.89 174.12 C 428.93 158.60 416.57 145.30 401.55 136.40 C 389.99 129.72 376.45 125.86 363.05 127.35 C 357.97 130.34 351.87 134.63 345.81 131.66 C 343.11 132.91 340.31 134.06 337.93 135.88 C 335.38 140.66 333.63 145.84 331.51 150.83 C 333.94 157.37 336.76 164.20 342.24 168.80 C 344.18 170.56 347.12 171.41 348.03 174.11 C 347.51 174.40 346.45 174.98 345.93 175.27 C 338.40 172.20 333.16 165.38 328.19 159.20 C 324.44 169.52 320.85 179.90 317.58 190.39 C 316.76 192.94 317.84 195.57 318.25 198.10 C 320.18 206.39 322.26 215.03 326.80 222.27 C 372.53 222.62 418.30 222.53 463.96 225.44 C 472.71 226.19 481.57 226.76 490.08 229.03 C 493.16 229.34 493.13 233.91 490.16 234.45 C 471.16 229.71 451.47 228.95 432.01 227.63 C 397.22 225.65 362.38 224.84 327.54 224.45 C 333.13 234.42 339.79 243.88 347.54 252.28 C 358.58 257.42 369.95 262.66 378.81 271.24 C 380.94 273.55 383.74 276.58 382.53 279.99 C 380.94 282.94 376.95 281.94 374.54 280.68 C 363.32 274.62 355.04 264.61 346.55 255.37 C 333.02 249.03 318.70 244.57 304.36 240.45 C 303.14 246.24 302.21 252.21 302.92 258.14 C 303.17 261.17 298.19 260.77 298.19 257.95 C 297.74 251.71 299.72 245.64 300.98 239.60 C 279.98 234.23 258.60 230.43 237.07 228.08 C 233.00 227.71 228.94 226.90 224.84 227.16 C 224.69 226.67 224.40 225.68 224.25 225.19 C 250.23 227.76 276.12 231.61 301.51 237.75 C 302.81 233.24 304.00 228.71 305.30 224.20 C 278.86 224.06 252.42 224.13 225.97 224.16 C 222.92 224.23 219.86 224.16 216.82 224.47 C 219.22 224.80 221.63 224.83 224.06 225.03 C 223.31 225.60 222.52 226.09 221.69 226.51 C 210.80 225.64 199.90 224.70 188.98 224.63 C 148.98 225.19 108.98 226.20 68.98 226.94 C 67.75 226.67 65.52 227.56 65.01 225.99 C 63.82 224.72 65.93 223.46 67.07 223.58 C 101.33 221.16 135.71 220.16 170.04 221.54 C 179.06 221.70 188.04 222.71 197.06 222.57 C 233.33 222.45 269.59 222.28 305.86 222.29 C 308.71 211.83 311.80 201.43 314.95 191.05 C 316.11 187.93 315.00 184.59 314.91 181.40 C 313.23 184.72 311.34 188.13 311.24 191.95 C 311.25 194.47 309.84 196.57 307.79 197.92 C 305.31 203.07 303.59 208.60 300.54 213.46 C 299.59 215.11 297.88 216.17 296.00 216.37 C 292.63 216.00 290.14 213.12 289.37 209.96 C 287.68 203.73 289.82 197.19 292.34 191.48 C 294.67 186.77 298.06 181.22 303.91 180.85 C 306.64 180.64 308.52 182.50 310.44 184.07 C 312.17 179.47 315.23 175.19 315.44 170.15 C 315.77 166.52 316.70 162.98 317.32 159.40 C 317.80 159.35 318.75 159.26 319.23 159.21 C 318.55 162.24 317.61 165.22 317.26 168.32 C 319.72 163.34 321.67 158.13 323.91 153.05 C 324.56 152.07 324.10 150.98 323.88 149.96 C 322.19 152.74 320.55 155.63 319.90 158.85 C 319.36 158.25 318.82 157.65 318.28 157.06 C 320.41 151.90 322.93 146.82 326.60 142.57 C 331.53 137.84 332.65 130.76 336.02 125.03 C 337.41 124.17 339.46 124.50 340.46 125.85 C 342.05 127.62 340.21 129.90 339.56 131.68 C 340.80 130.96 342.06 130.28 343.33 129.61 C 341.31 125.89 341.46 121.54 342.54 117.57 C 339.11 118.58 335.60 119.32 332.08 119.93 C 330.40 124.47 328.73 129.85 323.94 132.01 C 320.94 133.83 316.93 132.56 315.05 129.74 C 312.94 127.23 313.42 123.78 313.27 120.74 C 309.75 124.49 305.60 128.53 300.06 128.42 C 294.05 128.30 289.83 123.10 287.93 117.87 C 285.37 122.79 283.70 128.71 278.94 132.02 C 276.03 134.17 271.68 133.32 269.43 130.65 C 268.17 127.74 268.67 124.43 268.65 121.34 C 264.04 126.85 259.23 132.73 252.50 135.69 C 248.89 137.28 243.51 137.10 241.59 133.08 C 238.20 126.78 240.01 119.14 242.59 112.88 C 245.19 106.85 248.46 100.15 254.99 97.64 C 257.95 96.43 261.54 98.79 261.57 102.00 C 261.77 105.46 260.22 109.63 256.94 111.21 C 254.55 111.51 253.26 109.29 253.13 107.21 C 249.18 113.14 246.04 119.82 245.29 126.98 C 245.07 129.26 245.34 132.42 247.93 133.26 C 251.77 133.58 255.17 131.32 257.98 128.97 C 262.18 125.17 266.11 121.04 269.41 116.43 C 271.98 111.35 272.58 105.30 275.97 100.62 C 278.36 99.69 281.55 101.85 280.44 104.50 C 277.79 111.83 274.16 119.25 274.75 127.25 C 277.82 124.96 279.32 121.35 281.00 118.04 C 283.41 113.20 285.37 108.15 287.40 103.14 C 287.92 102.03 288.54 100.53 289.99 100.50 C 291.86 100.12 292.84 101.98 294.04 103.00 C 295.76 100.49 297.10 97.76 298.44 95.04 C 296.69 93.36 294.64 91.61 294.19 89.08 C 293.70 85.57 295.06 81.86 297.62 79.42 M 299.98 91.35 C 300.77 87.92 301.42 84.24 299.80 80.94 C 296.32 83.48 295.26 89.49 299.98 91.35 M 339.51 91.29 C 340.33 87.84 341.29 83.92 339.04 80.77 C 336.17 83.73 334.79 89.38 339.51 91.29 M 315.21 112.35 C 316.76 108.78 319.03 105.62 321.58 102.70 C 317.65 103.71 313.32 108.11 315.21 112.35 M 320.25 116.56 C 323.08 117.26 326.00 117.58 328.92 117.46 C 329.88 112.83 331.65 107.25 328.09 103.28 C 324.48 107.04 321.89 111.62 320.25 116.56 M 320.87 127.85 C 324.07 126.38 326.07 123.45 327.74 120.49 C 324.99 120.34 322.25 120.07 319.55 119.58 C 319.39 122.39 318.74 125.56 320.87 127.85 M 317.48 174.63 C 315.73 177.91 316.14 181.74 316.69 185.28 C 319.68 175.07 323.37 165.03 325.90 154.70 C 322.54 161.08 320.46 168.06 317.48 174.63 M 354.64 171.28 C 355.47 167.84 356.22 164.09 354.28 160.85 C 351.15 163.63 349.90 169.46 354.64 171.28 M 372.07 204.25 C 374.62 201.50 376.11 198.00 378.00 194.81 C 379.42 192.11 381.39 189.68 382.24 186.72 C 376.36 190.54 374.05 197.87 372.07 204.25 M 299.59 191.92 C 296.21 197.71 294.60 204.59 295.04 211.28 C 296.12 210.70 297.32 210.18 297.98 209.07 C 300.65 205.26 302.65 201.02 304.50 196.78 C 304.61 193.66 305.02 190.57 305.20 187.46 C 302.41 187.28 300.92 189.91 299.59 191.92 M 308.38 222.31 C 313.96 222.31 319.54 222.32 325.12 222.31 C 320.78 213.59 318.25 204.13 316.34 194.61 C 313.37 203.75 310.93 213.05 308.38 222.31 M 307.89 224.23 C 306.72 228.94 305.69 233.69 304.63 238.43 C 317.64 241.70 330.47 245.67 342.98 250.53 C 336.50 242.38 330.98 233.51 326.03 224.36 C 319.98 224.38 313.94 224.28 307.89 224.23 M 352.82 258.21 C 356.87 262.81 361.52 266.83 366.11 270.88 C 370.30 274.01 374.41 278.02 379.84 278.64 C 378.77 276.33 377.27 274.25 375.35 272.59 C 368.68 266.61 360.82 262.15 352.82 258.21 Z" />
<path fill="#ffffff" opacity="1.00" d=" M 350.02 96.02 C 350.72 94.20 352.54 93.30 354.08 92.31 C 358.43 93.75 355.47 99.37 352.04 99.74 C 349.96 100.07 348.95 97.54 350.02 96.02 Z" />
<path fill="#ffffff" opacity="1.00" d=" M 225.47 131.62 C 227.97 130.55 231.45 132.26 231.65 135.11 C 232.41 140.18 230.58 145.13 228.67 149.74 C 221.68 166.10 212.92 181.85 201.80 195.77 C 200.76 200.12 200.90 204.81 202.14 209.11 C 203.01 212.76 207.52 214.92 210.86 213.06 C 216.34 209.91 220.37 204.67 223.26 199.14 C 225.62 193.30 228.36 187.37 232.99 182.96 C 235.09 180.87 238.49 179.79 241.14 181.53 C 244.48 182.88 244.28 186.97 244.76 189.94 C 244.03 195.77 243.51 201.92 245.60 207.54 C 246.59 210.12 250.06 209.98 252.25 209.24 C 258.35 206.23 262.28 200.40 266.04 194.98 C 266.42 193.95 268.26 195.23 267.45 195.94 C 264.41 200.93 260.96 205.86 256.38 209.57 C 253.38 211.87 248.95 213.59 245.46 211.32 C 241.25 208.61 240.33 203.31 239.23 198.81 C 236.37 202.79 234.68 207.64 230.99 210.98 C 228.63 213.14 224.54 213.52 222.35 210.95 C 222.01 209.22 221.95 207.47 221.80 205.72 C 218.52 210.29 214.30 214.48 208.92 216.43 C 204.62 217.96 198.88 216.56 196.80 212.21 C 193.74 205.56 194.79 198.00 195.99 191.02 C 199.64 173.34 206.53 156.34 216.03 140.99 C 218.46 137.29 221.11 133.20 225.47 131.62 M 219.23 147.47 C 212.16 161.02 206.53 175.37 202.94 190.23 C 208.87 184.13 212.93 176.58 217.24 169.33 C 221.79 161.18 226.35 152.92 229.08 143.95 C 229.96 141.33 230.19 138.44 228.95 135.88 C 224.22 138.17 221.94 143.27 219.23 147.47 M 228.30 204.81 C 232.21 198.81 235.60 192.48 239.15 186.28 C 232.66 190.16 230.21 197.94 228.30 204.81 Z" />
<path fill="#ffffff" opacity="1.00" d=" M 253.97 146.03 C 254.77 143.92 256.21 140.72 259.01 141.41 C 261.70 142.98 261.54 146.59 259.91 148.87 C 254.82 157.05 249.21 164.91 244.20 173.14 C 243.30 175.04 241.36 175.93 239.49 176.57 C 239.40 174.38 240.71 172.59 241.76 170.80 C 246.56 162.94 251.15 154.84 253.97 146.03 Z" />
</g>
</svg>
